<svg id="Capa_1" enable-background="new 0 0 512 512" height="512" viewBox="0 0 512 512" width="512" xmlns="http://www.w3.org/2000/svg"><g><path d="m182.249 196.26 10.575 10.635c3.079-3.061 6.634-6.072 10.57-8.949l-8.852-12.107c-4.545 3.323-8.68 6.829-12.293 10.421z"/><path d="m227.852 185.43-4.578-14.283c-4.909 1.574-9.94 3.673-14.953 6.242l6.839 13.349c4.289-2.197 8.559-3.983 12.692-5.308z"/><path d="m30.033 165.778h14.998v14.998h-14.998z"/><path d="m60.013 165.778h14.998v14.998h-14.998z"/><path d="m512 135.686h-15.046v-29.933h-74.769v29.933h-19.22l-37.855-59.402h-218.226l-37.464 59.402h-109.42v75.087h14.998v-60.089h127.967c-31.955 30.107-51.939 72.786-51.939 120.05s19.984 89.943 51.938 120.05h-127.966v-165.013h-14.998v180.011h30.033v29.933h361.997v-14.998h-67.33c9.132-4.199 17.817-9.208 25.963-14.935h116.453v14.935h-30.092v14.998h45.091v-29.933h29.885zm-74.817-14.935h44.772v14.935h-44.772zm-310.031 14.935 28.004-44.403h201.726l28.298 44.403h-34.517c-26.813-18.85-59.462-29.933-94.655-29.933s-67.842 11.083-94.655 29.933zm-82.121 285.031v-14.935h116.321c8.146 5.727 16.831 10.736 25.963 14.935zm60.994-149.982c0-82.701 67.282-149.983 149.983-149.983s149.983 67.282 149.983 149.983-67.282 149.983-149.983 149.983-149.983-67.283-149.983-149.983zm390.977 120.049h-127.951c31.955-30.107 51.938-72.786 51.938-120.05s-19.984-89.944-51.939-120.05h127.951v240.1z"/><path d="m256.008 135.271c-74.695 0-135.463 60.769-135.463 135.464s60.768 135.463 135.463 135.463 135.463-60.768 135.463-135.463-60.769-135.464-135.463-135.464zm0 255.928c-66.424 0-120.465-54.04-120.465-120.465s54.041-120.465 120.465-120.465 120.465 54.04 120.465 120.465-54.041 120.465-120.465 120.465z"/><path d="m280.419 254.476c3.215 4.815 4.915 10.437 4.915 16.258 0 16.171-13.156 29.326-29.327 29.326s-29.327-13.156-29.327-29.326c0-16.171 13.156-29.327 29.327-29.327 5.084 0 10.091 1.319 14.478 3.815l7.417-13.036c-6.644-3.78-14.214-5.778-21.895-5.778-24.441 0-44.325 19.884-44.325 44.325s19.884 44.324 44.325 44.324 44.325-19.884 44.325-44.324c0-8.796-2.573-17.299-7.441-24.588z"/><path d="m407.028 420.717h14.998v14.998h-14.998z"/><path d="m482.051 165.778h-44.964v44.995h44.964zm-14.998 29.997h-14.967v-14.998h14.967z"/></g></svg>